<svg width="364" height="352" viewBox="0 0 364 352" fill="none" xmlns="http://www.w3.org/2000/svg">
<g clip-path="url(#clip0)">
<path d="M158.591 175.8L181.591 138.58L187.941 128.31L181.591 118.04L175.241 128.31L145.891 175.8L175.241 223.29L181.591 233.56L187.941 223.28L181.591 213.01L158.591 175.8Z" fill="#F35E3C"/>
<path d="M127.81 300.05L51.02 175.8L127.81 51.54L175.26 128.31L181.61 118.04L134.16 41.27L127.81 30.99L108.66 -0.0100098L0 175.79L108.66 351.59L127.81 320.59L134.16 310.31L181.59 233.56L175.24 223.29L127.81 300.05ZM108.66 331.05L12.66 175.81L108.66 20.5601L121.46 41.28L38.31 175.81L121.46 310.34L108.66 331.05Z" fill="#F35E3C"/>
<path d="M254.59 0L235.43 31L229.08 41.28L181.59 118.04L187.94 128.31L235.38 51.54L312.18 175.8L235.39 300.05L187.94 223.28L181.59 233.56L229.03 310.33L235.38 320.61L254.54 351.61L363.2 175.81L254.59 0ZM241.79 310.33L324.93 175.8L241.79 41.27L254.59 20.55L350.54 175.8L254.59 331.04L241.79 310.33Z" fill="#F35E3C"/>
</g>
<defs>
<clipPath id="clip0">
<rect width="363.22" height="351.6" fill="white"/>
</clipPath>
</defs>
</svg>
