<svg id="Layer_1" data-name="Layer 1" xmlns="http://www.w3.org/2000/svg" viewBox="0 0 363.22 351.6"><defs><style>.cls-1{fill:#831bde;}</style></defs><title>Horus Logo symbol</title><path class="cls-1" d="M660,1464.41l23-37.22,6.35-10.27L683,1406.65l-6.35,10.27-29.35,47.49,29.35,47.49,6.35,10.27,6.35-10.28L683,1501.62Z" transform="translate(-501.41 -1288.61)"/><path class="cls-1" d="M629.22,1588.66l-76.79-124.25,76.79-124.26,47.45,76.77,6.35-10.27-47.45-76.77-6.35-10.28-19.15-31-108.66,175.8,108.66,175.8,19.15-31,6.35-10.28L683,1522.17l-6.35-10.27Zm-19.15,31-96-155.24,96-155.25,12.8,20.72-83.15,134.53,83.15,134.53Z" transform="translate(-501.41 -1288.61)"/><path class="cls-1" d="M756,1288.61l-19.16,31-6.35,10.28L683,1406.65l6.35,10.27,47.44-76.77,76.8,124.26-76.79,124.25-47.45-76.77L683,1522.17l47.44,76.77,6.35,10.28,19.16,31,108.66-175.8Zm-12.8,310.33,83.14-134.53-83.14-134.53,12.8-20.72,95.95,155.25L756,1619.65Z" transform="translate(-501.41 -1288.61)"/></svg>